<svg id="Layer_1" data-name="Layer 1" xmlns="http://www.w3.org/2000/svg" viewBox="0 0 137.21 31.35"><title>studio-logo-3</title><path d="M4.63,35.36v9.42H2.69V35.36H1.5V33.58H2.69v-4H4.63v4H6.58v1.78Z" transform="translate(-1.5 -25.1)"/><path d="M9.39,28A1.38,1.38,0,1,1,8,29.34,1.38,1.38,0,0,1,9.39,28Zm1,5.61v11.2H8.42V33.58Z" transform="translate(-1.5 -25.1)"/><path d="M14,33.58H16v1.3a4,4,0,0,1,3.21-1.57,3.8,3.8,0,0,1,3.21,1.54,5,5,0,0,1,.65,3v6.94H21.1V37.9a3.29,3.29,0,0,0-.51-2.05A2.2,2.2,0,0,0,18.75,35a2.45,2.45,0,0,0-2,.86,4.72,4.72,0,0,0-.81,3v5.86H14Z" transform="translate(-1.5 -25.1)"/><path d="M30.26,43.73,25.1,33.58h2.21l4,8,3.64-8h2.16L28.85,51H26.69Z" transform="translate(-1.5 -25.1)"/><path d="M43.49,36.17A1.72,1.72,0,0,0,41.92,35a1.24,1.24,0,0,0-1.35,1.27c0,.81.54,1.05,1.81,1.59a6.81,6.81,0,0,1,2.81,1.73,2.65,2.65,0,0,1,.59,1.81,3.56,3.56,0,0,1-3.86,3.67A4,4,0,0,1,38,42.24l1.67-.7a2.53,2.53,0,0,0,2.27,1.84,1.74,1.74,0,0,0,1.84-1.78c0-1.05-.76-1.4-1.81-1.86a7.3,7.3,0,0,1-2.73-1.65,2.43,2.43,0,0,1-.51-1.65A3,3,0,0,1,42,33.31a3.23,3.23,0,0,1,3.08,2Z" transform="translate(-1.5 -25.1)"/><path d="M57,33.58H58.9v11.2H57V43.21a4.73,4.73,0,0,1-3.83,1.89c-2.83,0-5.45-2-5.45-5.94s2.59-5.86,5.45-5.86A4.64,4.64,0,0,1,57,35.17Zm-7.29,5.59c0,2.4,1.35,4.21,3.67,4.21s3.73-2,3.73-4.18A3.79,3.79,0,0,0,53.34,35C51.42,35,49.67,36.44,49.67,39.17Z" transform="translate(-1.5 -25.1)"/><path d="M64.52,25.1V44.78H62.58V25.1Z" transform="translate(-1.5 -25.1)"/><path d="M70.19,35.36v9.42H68.25V35.36H67.06V33.58h1.19v-4h1.94v4h1.94v1.78Z" transform="translate(-1.5 -25.1)"/><path d="M75.21,42.35a1.35,1.35,0,1,1-1.35,1.35A1.37,1.37,0,0,1,75.21,42.35Z" transform="translate(-1.5 -25.1)"/><path d="M84.74,36.17A1.72,1.72,0,0,0,83.18,35a1.24,1.24,0,0,0-1.35,1.27c0,.81.54,1.05,1.81,1.59a6.81,6.81,0,0,1,2.81,1.73A2.65,2.65,0,0,1,87,41.43a3.56,3.56,0,0,1-3.86,3.67,4,4,0,0,1-3.91-2.86l1.67-.7a2.53,2.53,0,0,0,2.27,1.84A1.74,1.74,0,0,0,85,41.59c0-1.05-.76-1.4-1.81-1.86a7.3,7.3,0,0,1-2.73-1.65A2.43,2.43,0,0,1,80,36.44a3,3,0,0,1,3.27-3.13,3.23,3.23,0,0,1,3.08,2Z" transform="translate(-1.5 -25.1)"/><path d="M91.63,35.36v9.42H89.68V35.36H88.5V33.58h1.19v-4h1.94v4h1.94v1.78Z" transform="translate(-1.5 -25.1)"/><path d="M97.35,40.11a3.81,3.81,0,0,0,.54,2.4,2.68,2.68,0,0,0,3.94,0,3.81,3.81,0,0,0,.54-2.4V33.58h1.94v6.75a4.45,4.45,0,0,1-1,3.37,4.89,4.89,0,0,1-6.86,0,4.45,4.45,0,0,1-1-3.37V33.58h1.94Z" transform="translate(-1.5 -25.1)"/><path d="M116.57,25.1h1.94V44.78h-1.94V43.21a4.73,4.73,0,0,1-3.83,1.89c-2.83,0-5.45-2-5.45-5.94s2.59-5.86,5.45-5.86a4.63,4.63,0,0,1,3.83,1.86Zm-7.29,14.06c0,2.4,1.35,4.21,3.67,4.21s3.73-2,3.73-4.18A3.79,3.79,0,0,0,113,35C111,35,109.28,36.44,109.28,39.17Z" transform="translate(-1.5 -25.1)"/><path d="M122.89,28a1.38,1.38,0,1,1-1.38,1.38A1.38,1.38,0,0,1,122.89,28Zm1,5.61v11.2h-1.94V33.58Z" transform="translate(-1.5 -25.1)"/><path d="M126.83,39.22a5.94,5.94,0,1,1,5.94,5.88A5.75,5.75,0,0,1,126.83,39.22Zm2,0a3.95,3.95,0,1,0,7.88,0,3.95,3.95,0,1,0-7.88,0Z" transform="translate(-1.5 -25.1)"/><path d="M91.15,52.47a1.87,1.87,0,0,0-1.3-.53,1.72,1.72,0,0,0-1.75,1.83,1.73,1.73,0,0,0,1.76,1.8,1.91,1.91,0,0,0,1.3-.55v.87a2.62,2.62,0,0,1-1.32.36,2.41,2.41,0,0,1-1.7-.66,2.35,2.35,0,0,1-.77-1.81,2.51,2.51,0,0,1,.77-1.88,2.38,2.38,0,0,1,1.74-.63,2.28,2.28,0,0,1,1.28.35Z" transform="translate(-1.5 -25.1)"/><path d="M97,53.75a2.5,2.5,0,1,1-2.5-2.49A2.44,2.44,0,0,1,97,53.75Zm-.73,0a1.77,1.77,0,1,0-1.76,1.82A1.72,1.72,0,0,0,96.3,53.75Z" transform="translate(-1.5 -25.1)"/><path d="M103.08,53.75a2.5,2.5,0,1,1-2.5-2.49A2.44,2.44,0,0,1,103.08,53.75Zm-.74,0a1.77,1.77,0,1,0-1.76,1.82A1.72,1.72,0,0,0,102.34,53.75Z" transform="translate(-1.5 -25.1)"/><path d="M105.09,53.26,107,51.34h1l-2.17,2.17,2.18,2.63h-1L105.24,54l-.14.14v2h-.74v-4.8h.74Z" transform="translate(-1.5 -25.1)"/><path d="M114.74,54.38l-.57.66.89,1.11h-.89l-.48-.59a2.87,2.87,0,0,1-.4.35,1.68,1.68,0,0,1-1.05.33,1.34,1.34,0,0,1-1.44-1.38,1.44,1.44,0,0,1,.69-1.24l.38-.27a1.49,1.49,0,0,1-.48-1,1.15,1.15,0,0,1,2.29-.07,1,1,0,0,1-.21.63,2.89,2.89,0,0,1-.6.55l.85,1,.55-.62Zm-2.44-.5a2.25,2.25,0,0,0-.53.4.89.89,0,0,0-.26.61.72.72,0,0,0,.75.73.94.94,0,0,0,.54-.19,4.42,4.42,0,0,0,.45-.4Zm.42-1.12a.61.61,0,0,0,.29-.47.43.43,0,0,0-.48-.43.42.42,0,0,0-.46.42.69.69,0,0,0,.17.42l.22.26Z" transform="translate(-1.5 -25.1)"/><path d="M118.27,51.34l1.27,3.21,1.3-3.44,1.25,3.44,1.31-3.21h.79L122,56.46,120.79,53l-1.27,3.41-2-5.11Z" transform="translate(-1.5 -25.1)"/><path d="M126,51.34a2.15,2.15,0,0,1,1.27.28,1.34,1.34,0,0,1,.57,1.13,1.32,1.32,0,0,1-1.07,1.34l1.5,2.05h-.89l-1.38-2h-.13v2h-.73v-4.8Zm-.12,2.2h.23c.2,0,1,0,1-.79s-.64-.74-1-.74h-.25Z" transform="translate(-1.5 -25.1)"/><path d="M130.09,51.34v4.8h-.73v-4.8Z" transform="translate(-1.5 -25.1)"/><path d="M132.94,52v4.11h-.73V52h-1.1v-.69H134V52Z" transform="translate(-1.5 -25.1)"/><path d="M137.7,52h-1.92v1.22h1.86v.69h-1.86v1.51h1.92v.69H135v-4.8h2.65Z" transform="translate(-1.5 -25.1)"/></svg>